<svg id="visual" viewBox="0 0 960 540" width="960" height="540" xmlns="http://www.w3.org/2000/svg" xmlns:xlink="http://www.w3.org/1999/xlink" version="1.1"><rect x="0" y="0" width="960" height="540" fill="#dad7cd"></rect><g transform="translate(922.4136982992973 -113.82374131925957)"><path d="M286.7 -424.3C368 -393.9 427.8 -308.3 484.8 -212.8C541.8 -117.3 596.1 -11.9 607.5 105.6C619 223 587.6 352.5 504.5 422.9C421.3 493.4 286.5 504.8 155.7 554C25 603.2 -101.6 690.2 -191.2 659.9C-280.9 629.7 -333.5 482.2 -396.1 367.1C-458.7 252 -531.3 169.4 -534.5 82.8C-537.8 -3.9 -471.7 -94.6 -409.8 -169.2C-347.8 -243.8 -289.9 -302.4 -222.2 -339C-154.6 -375.6 -77.3 -390.3 12.7 -410.1C102.7 -429.8 205.4 -454.7 286.7 -424.3" fill="#c8d3b7"></path></g></svg>