<svg id="visual" viewBox="0 0 900 600" width="900" height="600" xmlns="http://www.w3.org/2000/svg" xmlns:xlink="http://www.w3.org/1999/xlink" version="1.1"><rect x="0" y="0" width="900" height="600" fill="#dad7cd"></rect><g transform="translate(983.6429830143541 -194.55052865778987)"><path d="M195.9 -354.8C210.8 -330.7 150 -191.1 172 -112.8C193.9 -34.4 298.4 -17.2 343 25.7C387.6 68.7 372.2 137.3 370.9 251.4C369.5 365.4 382.3 524.8 322.8 618.9C263.3 713.1 131.7 742.1 -2.9 747.1C-137.5 752.2 -275 733.3 -345.3 645.4C-415.6 557.5 -418.7 400.5 -458.3 281.4C-497.8 162.3 -573.9 81.2 -527 27.1C-480.1 -27 -310.2 -54 -227.4 -98.2C-144.5 -142.3 -148.8 -203.7 -125.4 -222.8C-102 -242 -51 -219 19.7 -253.2C90.5 -287.4 181 -378.8 195.9 -354.8" fill="#c3d3a8"></path></g></svg>