<svg xmlns="http://www.w3.org/2000/svg" version="1.1" xmlns:xlink="http://www.w3.org/1999/xlink" xmlns:svgjs="http://svgjs.dev/svgjs" viewBox="0 0 800 400"><path d="M1.7937219142913818,182.9596405029297C18.932735097408294,177.9790729268392,74.49925168911616,152.90583140055338,106.72645568847656,152.46636962890625C138.95365968783696,152.02690785725912,170.09864974975585,171.33333470662436,199.10313415527344,180.26905822753906C228.10761856079102,189.20478174845377,258.9626270039876,204.09864857991536,284.304931640625,207.1748809814453C309.6472362772624,210.25111338297526,330.0896988932292,204.8161371866862,354.2601013183594,199.10313415527344C378.43050374348957,193.39013112386067,408.2630704752604,175.12705571492512,432.2869873046875,172.1973114013672C456.3109041341146,169.26756708780925,473.9521809895833,176.77130635579428,501.3453063964844,181.16592407226562C528.7384318033854,185.56054178873697,568.7982042439779,195.73392807006837,600,199.10313415527344C631.2017957560221,202.4723402404785,666.1554783121745,204.13751337687174,692.376708984375,201.79371643066406C718.5979396565755,199.4499194844564,743.2526472981771,185.92525416056316,760.5381469726562,184.75335693359375C777.8236466471354,183.58145970662434,792.0538340250652,193.00747395833332,798.206298828125,194.61883544921875" fill="none" stroke-width="5" stroke="#3a5a40" stroke-linecap="round" stroke-dasharray="0 0" stroke-opacity="1"></path><defs><linearGradient id="SvgjsLinearGradient1001"><stop stop-color="hsl(37, 99%, 67%)" offset="0"></stop><stop stop-color="hsl(316, 73%, 52%)" offset="1"></stop></linearGradient></defs></svg>